<svg xmlns="http://www.w3.org/2000/svg" width="24" height="24" fill="none" viewBox="0 0 24 24">
  <path fill="currentColor" d="M12 2C10.34 2 9 3.34 9 5c0 .55.22 1.05.59 1.41L12 9l2.41-2.59C14.78 6.05 15 5.55 15 5c0-1.66-1.34-3-3-3zm0 18c-1.66 0-3-1.34-3-3 0-.55.22-1.05.59-1.41L12 15l2.41 2.59C14.78 18.95 15 19.45 15 20c0 1.66-1.34 3-3 3zm-6-6c-1.66 0-3-1.34-3-3 0-.55.22-1.05.59-1.41L6 9l2.41 2.59C8.78 12.95 9 13.45 9 14c0 1.66-1.34 3-3 3zm12 0c-1.66 0-3-1.34-3-3 0-.55.22-1.05.59-1.41L18 9l2.41 2.59C20.78 12.95 21 13.45 21 14c0 1.66-1.34 3-3 3z"/>
</svg>